<svg width="43" height="35" viewBox="0 0 43 35" fill="none" xmlns="http://www.w3.org/2000/svg">
<g clip-path="url(#clip0_3_20)">
<path d="M41.7443 9.21152C41.7443 13.4196 39.1918 16.8438 36.0546 16.8438C36.0063 16.8438 35.9578 16.8422 35.9096 16.8406C38.6909 16.7363 40.9289 13.671 40.9289 9.91493C40.9289 9.71893 40.923 9.52606 40.9113 9.33485C40.8733 8.7309 40.6743 7.9373 40.4669 7.39985C39.6019 5.15666 39.953 4.12285 40.6366 3.08422C41.036 2.48036 41.5263 1.97286 41.9092 1.4402C42.2251 1.00066 42.468 0.543804 42.527 0C43.9375 4.33147 41.7443 5.56929 41.7443 9.21152Z" fill="#0EAC6E"/>
<path d="M40.9538 9.40625C40.9172 8.79767 40.724 7.998 40.5229 7.45644C39.684 5.1961 40.0245 4.15437 40.6874 3.10783C41.0748 2.49935 41.5504 1.98795 41.9218 1.45122C42.2281 1.00831 42.4634 0.547962 42.5206 0C42.7605 3.06318 40.9538 2.7351 40.9538 9.40625Z" fill="#02A05B"/>
<path d="M39.5691 7.4375C38.8912 6.72061 36.2085 7.4375 36.6431 3.5C38.0827 5.1548 39.1627 4.31966 39.5691 7.4375Z" fill="#0EAC6E"/>
<path d="M39.5692 7.4375C39.143 5.84253 36.9544 5.60766 36.5957 3.5C38.0587 5.1548 39.1561 4.31966 39.5692 7.4375Z" fill="#02A05B"/>
<path d="M3.0434 7.2695L8.86944 7.4375L14.5198 7.2695C15.0468 7.2695 15.4664 7.39084 15.7787 7.6335C16.1105 7.8575 16.2764 8.17484 16.2764 8.5855C16.2764 8.99616 16.1105 9.32284 15.7787 9.5655C15.4664 9.7895 15.0468 9.9015 14.5198 9.9015L10.304 9.7335C10.2259 11.5442 10.1869 14.3068 10.1869 18.0215L10.3625 27.0935C10.3625 27.5789 10.2259 27.9709 9.95268 28.2695C9.67942 28.5681 9.31836 28.7175 8.86944 28.7175C8.44006 28.7175 8.07897 28.5681 7.78621 28.2695C7.51295 27.9709 7.37634 27.5789 7.37634 27.0935L7.552 18.0215C7.552 14.7735 7.50321 12.0108 7.40561 9.7335L3.0434 9.9015C2.51642 9.9015 2.08703 9.7895 1.75523 9.5655C1.44295 9.32284 1.2868 8.99616 1.2868 8.5855C1.2868 8.17484 1.44295 7.8575 1.75523 7.6335C2.08703 7.39084 2.51642 7.2695 3.0434 7.2695Z" fill="#0EAC6E"/>
<path d="M23.6768 27.0935C23.6768 27.5789 23.5402 27.9709 23.2669 28.2695C22.9936 28.5681 22.6326 28.7175 22.1836 28.7175C21.7543 28.7175 21.4029 28.5681 21.1297 28.2695C20.8564 27.9709 20.7198 27.6629 20.7198 27.3455C20.7198 27.0281 20.7296 26.4215 20.7491 25.5255C20.8272 23.4349 20.8662 21.1855 20.8662 18.7775C20.8662 16.3508 20.8369 14.1202 20.7784 12.0855C20.7393 10.0322 20.7198 8.9775 20.7198 8.9215C20.7198 8.38016 20.8564 7.95084 21.1297 7.6335C21.4225 7.31616 21.7738 7.1575 22.1836 7.1575C22.8082 7.1575 23.2962 7.5215 23.6475 8.2495L30.1762 21.6615C31.9719 18.0402 33.9528 13.9148 36.1193 9.2855C36.5486 8.37084 36.8805 7.79216 37.1147 7.5495C37.3489 7.28816 37.6808 7.1575 38.1101 7.1575C38.5591 7.1575 38.92 7.31616 39.1933 7.6335C39.4861 7.93216 39.6325 8.3615 39.6325 8.9215C39.5348 9.40684 39.4861 11.5255 39.4861 15.2775C39.4861 19.0295 39.5154 21.9229 39.5739 23.9575C39.6325 25.9921 39.6618 27.0375 39.6618 27.0935C39.6618 27.5789 39.5252 27.9709 39.2519 28.2695C38.9786 28.5681 38.6177 28.7175 38.1687 28.7175C37.7394 28.7175 37.388 28.5681 37.1147 28.2695C36.8414 27.9709 36.7048 27.6629 36.7048 27.3455C36.7048 27.0095 36.7147 26.4029 36.7341 25.5255C36.8512 22.2589 36.9098 19.7575 36.9098 18.0215V13.7375L31.6107 24.4055C31.2788 25.0589 30.8301 25.3855 30.264 25.3855C29.6979 25.3855 29.2393 25.0401 28.888 24.3495L23.5011 13.7375V18.0215C23.5011 19.9442 23.5304 21.9229 23.5889 23.9575C23.6475 25.9921 23.6768 27.0375 23.6768 27.0935Z" fill="black"/>
</g>
<defs>
<clipPath id="clip0_3_20">
<rect width="43" height="35" fill="white"/>
</clipPath>
</defs>
</svg>
